# xmcd
#
# Track frame offsets: 
#        150
#        18340
#        44715
#        60757
#        77327
#        98847
#        114195
#        134437
#        150632
#        160957
#        184417
#        204537
#        222905
#
# Disc length: 3244 seconds
#
# Revision: 2
# Processed by: cddbd v1.5.2PL0 Copyright (c) Steve Scherf et al.
# Submitted via: ExactAudioCopy v1.2
#
DISCID=a70caa0d
DTITLE=Mitch Kashmar - Nickels and Dimes
DYEAR=2005
DGENRE=Blues
TTITLE0=Dirty Deal
TTITLE1=Nickels and Dimes
TTITLE2=New York Woman
TTITLE3=Just Show It to Me
TTITLE4=Lizzy Mae (feat. Abu Talib)
TTITLE5=Gettin' Drunk
TTITLE6=Becky Ann
TTITLE7=Knock'em Dead (feat. Arthur Adams)
TTITLE8=I Don't Play
TTITLE9=Whiskey Drinkin' Woman
TTITLE10=We're Sittin' Home Tonight
TTITLE11=Who
TTITLE12=Runnin' Off at the Mouth
EXTD=
EXTT0=
EXTT1=
EXTT2=
EXTT3=
EXTT4=
EXTT5=
EXTT6=
EXTT7=
EXTT8=
EXTT9=
EXTT10=
EXTT11=
EXTT12=
PLAYORDER=
